<svg data-name="Layer 1" xmlns="http://www.w3.org/2000/svg" viewBox="0 0 276.21 276.21"><path d="M138.11 66.68a71.45 71.45 0 1 0 71.45 71.43 71.45 71.45 0 0 0-71.45-71.43zm0 115.09a43.66 43.66 0 1 1 43.66-43.66 43.66 43.66 0 0 1-43.66 43.66z" fill="#923a96"/><circle cx="209.68" cy="67.23" r="17.13" fill="#923a96"/><path d="M193.92 0H82.3A82.41 82.41 0 0 0 0 82.3v111.64a82.41 82.41 0 0 0 82.3 82.28h111.64a82.41 82.41 0 0 0 82.28-82.3V82.3A82.41 82.41 0 0 0 193.92 0zm54.51 193.92a54.5 54.5 0 0 1-54.51 54.51H82.3a54.5 54.5 0 0 1-54.51-54.51V82.3A54.5 54.5 0 0 1 82.3 27.79h111.64a54.51 54.51 0 0 1 54.51 54.51v111.64z" fill="#923a96" data-name="Group 134"/></svg>