<svg data-name="Layer 1" xmlns="http://www.w3.org/2000/svg" viewBox="0 0 257.66 209.27"><path data-name="Fill-1" d="M250.29 4.64a85.92 85.92 0 0 1-33.14 11.76 53.14 53.14 0 0 0-90.16 48.59A147.2 147.2 0 0 1 17.43 9.8a53.18 53.18 0 0 0 16.06 70.22 34.15 34.15 0 0 1-23.21-6 51.24 51.24 0 0 0 41 51.94 42.08 42.08 0 0 1-22.13 1.68A50.24 50.24 0 0 0 76.6 163.7 94.52 94.52 0 0 1 0 185.78a159.79 159.79 0 0 0 83.14 23.5 147.66 147.66 0 0 0 149-146.35q0-4.44-.19-8.87v-1.74a91.72 91.72 0 0 0 25.76-27.21 93.44 93.44 0 0 1-29.47 8.37 56.47 56.47 0 0 0 22.08-28.84" fill="#439cd6" fill-rule="evenodd"/></svg>