<svg id="f89a017b-84c8-4e07-8971-2a8c60383bba" data-name="Layer 1" xmlns="http://www.w3.org/2000/svg" viewBox="0 0 263.9 164.27">
  <title>google-plus</title>
  <g>
    <path id="bea4a4af-f0a8-463f-8a69-1b5180d00133" data-name="Fill-186" d="M118.16,245.71a81.78,81.78,0,0,1,81.72-77.85,83,83,0,0,1,54.68,20.25,293.2,293.2,0,0,1-20.78,21.53A54,54,0,0,0,170.06,208a52.52,52.52,0,0,0-2.19,81.85c24.93,22.63,72,11.39,78.9-23.26-15.6-.23-31.25,0-46.86-.51,0-9.31-.07-18.59,0-28,26.1-.08,52.19-.12,78.31.08a94,94,0,0,1-14.78,63.42,80.81,80.81,0,0,1-93.26,24.8,82.08,82.08,0,0,1-52-80.63" transform="translate(-118.05 -167.86)" style="fill: #dd5245;fill-rule: evenodd"/>
    <path id="e65ee1ed-a514-47b6-b6b5-2abaef6d703e" data-name="Fill-187" d="M335.13,218h23.28c0,7.8.07,15.63.15,23.42,7.78.07,15.6.07,23.39.15v23.3c-7.79.08-15.57.12-23.39.2q-.12,11.74-.15,23.41H335.09c-.08-7.78-.08-15.58-.15-23.38l-23.39-.23V241.57q11.65-.12,23.39-.15c0-7.83.12-15.63.19-23.42" transform="translate(-118.05 -167.86)" style="fill: #dd5245;fill-rule: evenodd"/>
  </g>
</svg>
