<svg id="baef276a-c51d-4dd5-ae18-844003290506" data-name="Layer 1" xmlns="http://www.w3.org/2000/svg" viewBox="0 0 276.21 276.21">
  <title>instagram</title>
  <g>
    <path d="M250,178.57A71.45,71.45,0,1,0,321.45,250,71.45,71.45,0,0,0,250,178.57Zm0,115.09A43.66,43.66,0,1,1,293.66,250,43.66,43.66,0,0,1,250,293.66Z" transform="translate(-111.89 -111.89)" style="fill: #923a96"/>
    <circle cx="209.68" cy="67.23" r="17.13" style="fill: #923a96"/>
    <g id="bf4b1f9b-2a71-43cb-8a78-e25570af647a" data-name="Group 134">
      <path d="M305.81,111.89H194.19a82.41,82.41,0,0,0-82.3,82.3V305.83a82.41,82.41,0,0,0,82.3,82.28H305.83a82.41,82.41,0,0,0,82.28-82.3V194.19A82.41,82.41,0,0,0,305.81,111.89Zm54.51,193.92a54.5,54.5,0,0,1-54.51,54.51H194.19a54.5,54.5,0,0,1-54.51-54.51V194.19a54.5,54.5,0,0,1,54.51-54.51H305.83a54.51,54.51,0,0,1,54.51,54.51V305.83Z" transform="translate(-111.89 -111.89)" style="fill: #923a96"/>
    </g>
  </g>
</svg>
