<svg id="a2bb160b-136f-4a6a-8d46-cb93cc734274" data-name="Layer 1" xmlns="http://www.w3.org/2000/svg" viewBox="0 0 299.53 299.53">
  <title>next-arrow</title>
  <g>
    <g id="a0345e8c-6699-490f-9694-0e7835bf0c63" data-name="Path 52">
      <polygon points="245.78 150.09 160.88 234.99 145 219.1 202.79 161.31 67.85 161.31 67.85 138.84 202.77 138.84 145 81.05 160.88 65.17 245.78 150.09" style="fill: #717171"/>
    </g>
    <g id="ff8a268d-312e-41e5-802b-29a9347e3d65" data-name="next arrow">
      <g id="a08ef936-cade-4260-b3fe-ba7f9c3297b3" data-name="Ellipse 6">
        <circle cx="149.77" cy="149.77" r="149.77" style="fill: none"/>
        <path d="M250,399.77c-82.58,0-149.77-67.19-149.77-149.77S167.42,100.23,250,100.23,399.77,167.42,399.77,250,332.58,399.77,250,399.77Zm0-277.07A127.3,127.3,0,1,0,377.3,250,127.44,127.44,0,0,0,250,122.7Z" transform="translate(-100.23 -100.23)" style="fill: #717171"/>
      </g>
    </g>
  </g>
</svg>
