<svg id="efa94e72-0d3e-469a-8f01-6340b66ddc50" data-name="Layer 1" xmlns="http://www.w3.org/2000/svg" viewBox="0 0 257.66 209.27">
  <title>twitter</title>
  <path id="b152abeb-0811-4760-92b0-6a51177aa16c" data-name="Fill-1" d="M371.46,150a85.92,85.92,0,0,1-33.14,11.76h0a53.14,53.14,0,0,0-90.16,48.59h0A147.2,147.2,0,0,1,138.6,155.16a53.18,53.18,0,0,0,16.06,70.22,34.15,34.15,0,0,1-23.21-6,51.24,51.24,0,0,0,41,51.94A42.08,42.08,0,0,1,150.32,273a50.24,50.24,0,0,0,47.45,36.06,94.52,94.52,0,0,1-76.6,22.08,159.79,159.79,0,0,0,83.14,23.5,147.66,147.66,0,0,0,149-146.35q0-4.44-.19-8.87v-1.74a91.72,91.72,0,0,0,25.76-27.21,93.44,93.44,0,0,1-29.47,8.37A56.47,56.47,0,0,0,371.49,150" transform="translate(-121.17 -145.36)" style="fill: #439cd6;fill-rule: evenodd"/>
</svg>
