<?xml version="1.0" standalone="no"?>
<!DOCTYPE svg PUBLIC "-//W3C//DTD SVG 20010904//EN"
 "http://www.w3.org/TR/2001/REC-SVG-20010904/DTD/svg10.dtd">
<svg version="1.0" xmlns="http://www.w3.org/2000/svg"
 width="2084.000000pt" height="2084.000000pt" viewBox="0 0 2084.000000 2084.000000"
 preserveAspectRatio="xMidYMid meet">
<metadata>
Created by potrace 1.11, written by Peter Selinger 2001-2013
</metadata>
<g transform="translate(0.000000,2084.000000) scale(0.100000,-0.100000)"
fill="#000000" stroke="none">
<path d="M0 10410 l0 -10380 10415 0 10415 0 0 10380 0 10380 -10415 0 -10415
0 0 -10380z m18945 5 l0 -8490 -8527 -3 -8528 -2 0 8495 0 8495 8528 -2 8527
-3 0 -8490z"/>
<path d="M13538 14678 l-3 -2923 -2990 0 -2990 0 -3 2823 -2 2822 -945 0 -945
0 0 -6690 0 -6690 945 0 945 0 0 2920 0 2920 2995 0 2995 0 0 -2820 0 -2820
940 0 940 0 0 6690 0 6690 -940 0 -940 0 -2 -2922z"/>
</g>
</svg>
